<svg width="1920" height="1080" viewBox="0 0 1920 1080" fill="none" xmlns="http://www.w3.org/2000/svg">
<g clip-path="url(#clip0_323_141)">
<rect width="1920" height="1080" fill="#2F4FFF"/>
<path d="M-136 583.537L-46.4089 419.273C19.6012 298.245 194.945 302.914 254.421 427.283L351.29 629.845C388.218 707.064 501.103 697.365 524.318 614.979L546.192 537.351C562.928 477.957 645.279 473.189 668.758 530.254V530.254C692.374 587.65 775.337 582.39 791.514 522.471L808.607 459.161C829.941 380.141 941.071 377.475 966.17 455.381V455.381C988.432 524.482 1082.8 532.889 1116.93 468.811L1210.06 293.933C1257.13 205.551 1383.59 204.952 1431.49 292.885L1446.26 319.985C1487.55 395.783 1596.39 395.755 1637.64 319.935L1646.77 303.156C1689.88 223.924 1807.35 236.695 1832.63 323.282V323.282C1858.82 413.034 1982.47 422.186 2021.39 337.175V337.175C2060.47 251.812 2184.71 261.339 2210.32 351.662L2219.75 384.918C2249.38 489.443 2395.3 495.359 2435.38 394.379V394.379C2477.61 287.987 2633.15 300.39 2655.46 412.663L2714 707.314" stroke="#2848F2" stroke-width="100"/>
<path d="M3345 1039.54L3255.41 875.273C3189.4 754.245 3014.05 758.914 2954.58 883.283L2857.71 1085.84C2820.78 1163.06 2707.9 1153.36 2684.68 1070.98L2662.81 993.351C2646.07 933.957 2563.72 929.189 2540.24 986.254V986.254C2516.63 1043.65 2433.66 1038.39 2417.49 978.471L2400.39 915.161C2379.06 836.141 2267.93 833.475 2242.83 911.381V911.381C2220.57 980.482 2126.2 988.889 2092.07 924.811L1998.94 749.933C1951.87 661.551 1825.41 660.952 1777.51 748.885L1762.74 775.985C1721.45 851.783 1612.61 851.755 1571.36 775.935L1562.23 759.156C1519.12 679.924 1401.65 692.695 1376.37 779.282V779.282C1350.18 869.034 1226.53 878.186 1187.61 793.175V793.175C1148.53 707.812 1024.29 717.339 998.681 807.662L989.252 840.918C959.616 945.443 813.704 951.359 773.62 850.379V850.379C731.387 743.987 575.85 756.39 553.543 868.663L495 1163.31" stroke="#2848F2" stroke-width="100"/>
<path d="M3810 1279.54L3720.41 1115.27C3654.4 994.245 3479.05 998.914 3419.58 1123.28L3322.71 1325.84C3285.78 1403.06 3172.9 1393.36 3149.68 1310.98L3127.81 1233.35C3111.07 1173.96 3028.72 1169.19 3005.24 1226.25V1226.25C2981.63 1283.65 2898.66 1278.39 2882.49 1218.47L2865.39 1155.16C2844.06 1076.14 2732.93 1073.48 2707.83 1151.38V1151.38C2685.57 1220.48 2591.2 1228.89 2557.07 1164.81L2463.94 989.933C2416.87 901.551 2290.41 900.952 2242.51 988.885L2227.74 1015.99C2186.45 1091.78 2077.61 1091.75 2036.36 1015.94L2027.23 999.156C1984.12 919.924 1866.65 932.695 1841.37 1019.28V1019.28C1815.18 1109.03 1691.53 1118.19 1652.61 1033.17V1033.17C1613.53 947.812 1489.29 957.339 1463.68 1047.66L1454.25 1080.92C1424.62 1185.44 1278.7 1191.36 1238.62 1090.38V1090.38C1196.39 983.987 1040.85 996.39 1018.54 1108.66L960 1403.31" stroke="#2848F2" stroke-width="100"/>
<path d="M2764 -241.537L2674.41 -77.2733C2608.4 43.7551 2433.05 39.0862 2373.58 -85.2834L2276.71 -287.845C2239.78 -365.064 2126.9 -355.365 2103.68 -272.979L2081.81 -195.351C2065.07 -135.957 1982.72 -131.189 1959.24 -188.254V-188.254C1935.63 -245.65 1852.66 -240.39 1836.49 -180.471L1819.39 -117.161C1798.06 -38.1412 1686.93 -35.4751 1661.83 -113.381V-113.381C1639.57 -182.482 1545.2 -190.889 1511.07 -126.811L1417.94 48.0675C1370.87 136.449 1244.41 137.048 1196.51 49.1153L1181.74 22.0146C1140.45 -53.7832 1031.61 -53.7545 990.359 22.065L981.229 38.8439C938.119 118.076 820.65 105.305 795.375 18.7179V18.7179C769.175 -71.034 645.534 -80.1865 606.613 4.8252V4.8252C567.532 90.1881 443.291 80.6613 417.681 -9.66217L408.252 -42.9178C378.616 -147.443 232.704 -153.359 192.62 -52.3794V-52.3794C150.387 54.0126 -5.15023 41.6104 -27.4572 -70.6628L-86.0001 -365.314" stroke="#2848F2" stroke-width="100"/>
<path d="M557.662 1433.25L620.555 1286.08C660.836 1191.82 557.626 1100.71 469.093 1152.38L301.33 1250.29C248.126 1281.34 189.006 1220.15 221.864 1168.04L266.251 1097.65C289.186 1061.28 246.782 1019.11 210.539 1042.25V1042.25C174.158 1065.47 131.695 1022.93 154.986 986.59L192.958 927.348C223.75 879.309 165.543 824.093 119.194 857.375V857.375C76.4735 888.051 20.5373 842.85 41.562 794.642L112.927 631.008C141.592 565.279 71.2744 500.258 7.9876 533.973L-16.664 547.106C-71.5371 576.339 -132.622 520.231 -108.147 463.077L-105.666 457.284C-79.8433 396.984 -150.473 341.381 -203.026 380.637L-209.855 385.738C-262.063 424.736 -331.426 367.238 -302.784 308.704V308.704C-274.065 250.012 -343.829 192.488 -395.973 231.865L-431.391 258.611C-492.55 304.796 -573.649 235.398 -537.471 167.835V167.835C-500.292 98.4005 -586.318 28.6857 -646.542 79.4451L-882.877 278.638" stroke="#2848F2" stroke-width="100"/>
<path d="M2229.31 876.394L2188.52 708.961C2157.3 580.833 1990.39 547.956 1912.92 654.677L1790.3 823.596C1743.53 888.027 1641.69 856.649 1639.29 777.068L1636.83 695.685C1635.12 638.836 1561.14 618.131 1530.16 665.831V665.831C1499.02 713.783 1424.62 692.557 1423.48 635.394L1422.13 568.372C1420.61 492.892 1320.14 468.141 1283.73 534.279V534.279C1251.13 593.517 1162.64 581.337 1147.26 515.492L1103.52 328.347C1082.39 237.933 966.431 211.518 908.228 283.86L889.442 307.211C839.188 369.672 739.118 347.32 720.218 269.412L716.626 254.605C696.794 172.859 585.538 160.715 546.863 235.413V235.413C507.25 311.922 392.456 295.709 377.604 210.843V210.843C362.696 125.659 247.941 108.467 208.725 185.543L192.067 218.283C146.378 308.083 11.9737 283.932 -0.6219 183.969V183.969C-13.7688 79.6293 -156.702 59.2416 -197.403 156.211L-314.687 435.644" stroke="#2848F2" stroke-width="100"/>
<circle cx="1658" cy="566.997" r="369.003" fill="url(#paint0_radial_323_141)"/>
<ellipse cx="1663.1" cy="345.918" rx="247.793" ry="146.253" transform="rotate(1.31904 1663.1 345.918)" fill="url(#paint1_linear_323_141)"/>
<ellipse cx="1555.03" cy="281.911" rx="72.7783" ry="34.6328" transform="rotate(-21.8222 1555.03 281.911)" fill="url(#paint2_radial_323_141)"/>
<circle cx="395.289" cy="355.71" r="131.289" fill="url(#paint3_radial_323_141)"/>
<ellipse cx="397.101" cy="277.052" rx="88.1636" ry="52.036" transform="rotate(1.31904 397.101 277.052)" fill="url(#paint4_linear_323_141)"/>
<ellipse cx="358.653" cy="254.278" rx="25.8942" ry="12.3222" transform="rotate(-21.8222 358.653 254.278)" fill="url(#paint5_radial_323_141)"/>
<circle cx="828.289" cy="898.71" r="131.289" fill="url(#paint6_radial_323_141)"/>
<ellipse cx="830.101" cy="820.052" rx="88.1636" ry="52.036" transform="rotate(1.31904 830.101 820.052)" fill="url(#paint7_linear_323_141)"/>
<ellipse cx="791.653" cy="797.278" rx="25.8942" ry="12.3222" transform="rotate(-21.8222 791.653 797.278)" fill="url(#paint8_radial_323_141)"/>
</g>
<defs>
<radialGradient id="paint0_radial_323_141" cx="0" cy="0" r="1" gradientUnits="userSpaceOnUse" gradientTransform="translate(1658 566.997) rotate(90) scale(369.003)">
<stop offset="0.854167" stop-color="#C4C4C4" stop-opacity="0"/>
<stop offset="1" stop-color="#15BEF3" stop-opacity="0.69"/>
</radialGradient>
<linearGradient id="paint1_linear_323_141" x1="1663.1" y1="199.665" x2="1663.1" y2="492.171" gradientUnits="userSpaceOnUse">
<stop stop-color="#15BEF3" stop-opacity="0.44"/>
<stop offset="0.885417" stop-color="white" stop-opacity="0.02"/>
</linearGradient>
<radialGradient id="paint2_radial_323_141" cx="0" cy="0" r="1" gradientUnits="userSpaceOnUse" gradientTransform="translate(1555.03 281.911) rotate(90) scale(34.6328 72.7783)">
<stop offset="0.760417" stop-color="white" stop-opacity="0.88"/>
<stop offset="1" stop-color="white" stop-opacity="0"/>
</radialGradient>
<radialGradient id="paint3_radial_323_141" cx="0" cy="0" r="1" gradientUnits="userSpaceOnUse" gradientTransform="translate(395.289 355.71) rotate(90) scale(131.289)">
<stop offset="0.854167" stop-color="#C4C4C4" stop-opacity="0"/>
<stop offset="1" stop-color="#15BEF3" stop-opacity="0.69"/>
</radialGradient>
<linearGradient id="paint4_linear_323_141" x1="397.101" y1="225.016" x2="397.101" y2="329.088" gradientUnits="userSpaceOnUse">
<stop stop-color="#15BEF3" stop-opacity="0.44"/>
<stop offset="0.885417" stop-color="white" stop-opacity="0.02"/>
</linearGradient>
<radialGradient id="paint5_radial_323_141" cx="0" cy="0" r="1" gradientUnits="userSpaceOnUse" gradientTransform="translate(358.653 254.278) rotate(90) scale(12.3222 25.8942)">
<stop offset="0.760417" stop-color="white" stop-opacity="0.88"/>
<stop offset="1" stop-color="white" stop-opacity="0"/>
</radialGradient>
<radialGradient id="paint6_radial_323_141" cx="0" cy="0" r="1" gradientUnits="userSpaceOnUse" gradientTransform="translate(828.289 898.71) rotate(90) scale(131.289)">
<stop offset="0.854167" stop-color="#C4C4C4" stop-opacity="0"/>
<stop offset="1" stop-color="#15BEF3" stop-opacity="0.69"/>
</radialGradient>
<linearGradient id="paint7_linear_323_141" x1="830.101" y1="768.016" x2="830.101" y2="872.088" gradientUnits="userSpaceOnUse">
<stop stop-color="#15BEF3" stop-opacity="0.44"/>
<stop offset="0.885417" stop-color="white" stop-opacity="0.02"/>
</linearGradient>
<radialGradient id="paint8_radial_323_141" cx="0" cy="0" r="1" gradientUnits="userSpaceOnUse" gradientTransform="translate(791.653 797.278) rotate(90) scale(12.3222 25.8942)">
<stop offset="0.760417" stop-color="white" stop-opacity="0.88"/>
<stop offset="1" stop-color="white" stop-opacity="0"/>
</radialGradient>
<clipPath id="clip0_323_141">
<rect width="1920" height="1080" fill="white"/>
</clipPath>
</defs>
</svg>
