<svg width="1920" height="1080" viewBox="0 0 1920 1080" fill="none" xmlns="http://www.w3.org/2000/svg">
<g clip-path="url(#clip0_323_141)">
<path d="M-192 552.537L-102.409 388.273C-36.3988 267.245 138.945 271.914 198.421 396.283L295.29 598.845C332.218 676.064 445.103 666.365 468.318 583.979L490.192 506.351C506.928 446.957 589.279 442.189 612.758 499.254V499.254C636.374 556.65 719.337 551.39 735.514 491.471L752.607 428.161C773.941 349.141 885.071 346.475 910.17 424.381V424.381C932.432 493.482 1026.8 501.889 1060.93 437.811L1154.06 262.933C1201.13 174.551 1327.59 173.952 1375.49 261.885L1390.26 288.985C1431.55 364.783 1540.39 364.755 1581.64 288.935L1590.77 272.156C1633.88 192.924 1751.35 205.695 1776.63 292.282V292.282C1802.82 382.034 1926.47 391.186 1965.39 306.175V306.175C2004.47 220.812 2128.71 230.339 2154.32 320.662L2163.75 353.918C2193.38 458.443 2339.3 464.359 2379.38 363.379V363.379C2421.61 256.987 2577.15 269.39 2599.46 381.663L2658 676.314" stroke="#C6C6C6" stroke-opacity="0.05" stroke-width="50"/>
<path d="M3345 1039.54L3255.41 875.273C3189.4 754.245 3014.05 758.914 2954.58 883.283L2857.71 1085.84C2820.78 1163.06 2707.9 1153.36 2684.68 1070.98L2662.81 993.351C2646.07 933.957 2563.72 929.189 2540.24 986.254V986.254C2516.63 1043.65 2433.66 1038.39 2417.49 978.471L2400.39 915.161C2379.06 836.141 2267.93 833.475 2242.83 911.381V911.381C2220.57 980.482 2126.2 988.889 2092.07 924.811L1998.94 749.933C1951.87 661.551 1825.41 660.952 1777.51 748.885L1762.74 775.985C1721.45 851.783 1612.61 851.755 1571.36 775.935L1562.23 759.156C1519.12 679.924 1401.65 692.695 1376.37 779.282V779.282C1350.18 869.034 1226.53 878.186 1187.61 793.175V793.175C1148.53 707.812 1024.29 717.339 998.681 807.662L989.252 840.918C959.616 945.443 813.704 951.359 773.62 850.379V850.379C731.387 743.987 575.85 756.39 553.543 868.663L495 1163.31" stroke="#C6C6C6" stroke-opacity="0.05" stroke-width="50"/>
<path d="M557.662 1433.25L620.555 1286.08C660.836 1191.82 557.626 1100.71 469.093 1152.38L301.33 1250.29C248.126 1281.34 189.006 1220.15 221.864 1168.04L266.251 1097.65C289.186 1061.28 246.782 1019.11 210.539 1042.25V1042.25C174.158 1065.47 131.695 1022.93 154.986 986.59L192.958 927.348C223.75 879.309 165.543 824.093 119.194 857.375V857.375C76.4735 888.051 20.5373 842.85 41.562 794.642L112.927 631.008C141.592 565.279 71.2744 500.258 7.9876 533.973L-16.664 547.106C-71.5371 576.339 -132.622 520.231 -108.147 463.077L-105.666 457.284C-79.8433 396.984 -150.473 341.381 -203.026 380.637L-209.855 385.738C-262.063 424.736 -331.426 367.238 -302.784 308.704V308.704C-274.065 250.012 -343.829 192.488 -395.973 231.865L-431.391 258.611C-492.55 304.796 -573.649 235.398 -537.471 167.835V167.835C-500.292 98.4005 -586.318 28.6857 -646.542 79.4451L-882.877 278.638" stroke="#C6C6C6" stroke-opacity="0.05" stroke-width="50"/>
</g>
<defs>
<clipPath id="clip0_323_141">
<rect width="1920" height="1080" fill="white"/>
</clipPath>
</defs>
</svg>
