<svg width="1920" height="1080" viewBox="0 0 1920 1080" fill="none" xmlns="http://www.w3.org/2000/svg">
<g clip-path="url(#clip0_323_141)">
<rect width="1920" height="1080" fill="#2F4FFF"/>
<path d="M2263 1079.16L2198.91 1145.66L2146.51 1203.29C2130.44 1220.97 2110.29 1234.45 2087.81 1242.57L2074.54 1247.36C2028.1 1264.13 1954.08 1256 1967.31 1208.43V1208.43C1968.87 1202.83 1970 1196.75 1970.8 1190.41C1977.27 1138.77 1993.98 1086.1 2035.96 1055.33L2062.31 1036.02C2072.66 1028.44 2079.79 1017.27 2082.32 1004.7V1004.7C2088.24 975.203 2067.68 946.949 2037.79 943.522L1998.75 939.047C1971.07 935.874 1943.54 946.069 1924.6 966.502L1891.47 1002.26C1886.99 1007.09 1882.92 1012.29 1879.3 1017.8L1843.55 1072.25C1831.03 1091.31 1834.7 1116.72 1852.11 1131.47L1857.18 1135.77C1877.76 1153.2 1875.68 1185.54 1853.04 1200.2V1200.2C1830.14 1215.02 1799.43 1203.22 1792.36 1176.88L1776.39 1117.42C1772.32 1102.3 1773.49 1086.25 1779.68 1071.87V1071.87C1797.89 1029.6 1770.76 981.627 1725.16 975.445L1700.99 972.168C1672.37 968.289 1643.67 978.687 1624.18 999.995L1615.52 1009.46C1602.54 1023.65 1593.42 1040.93 1589.01 1059.65L1573.9 1123.89L1562.4 1176.17C1549.27 1235.88 1501.26 1281.68 1441 1292V1292" stroke="#001A3D" stroke-opacity="0.04" stroke-width="126"/>
<path d="M478 1079.16L413.907 1145.66L361.511 1203.29C345.437 1220.97 325.288 1234.45 302.815 1242.57L289.535 1247.36C243.101 1264.13 169.079 1256 182.308 1208.43V1208.43C183.866 1202.83 185.002 1196.75 185.797 1190.41C192.27 1138.77 208.981 1086.1 250.958 1055.33L277.314 1036.02C287.655 1028.44 294.79 1017.27 297.316 1004.7V1004.7C303.244 975.203 282.679 946.949 252.792 943.522L213.751 939.047C186.074 935.874 158.54 946.069 139.604 966.502L106.466 1002.26C101.986 1007.09 97.9165 1012.29 94.2992 1017.8L58.5521 1072.25C46.033 1091.31 49.704 1116.72 67.1077 1131.47L72.1801 1135.77C92.7554 1153.2 90.6769 1185.54 68.0397 1200.2V1200.2C45.1381 1215.02 14.4344 1203.22 7.35715 1176.88L-8.61349 1117.42C-12.6755 1102.3 -11.5146 1086.25 -5.3188 1071.87V1071.87C12.8902 1029.6 -14.2375 981.627 -59.839 975.445L-84.0147 972.168C-112.63 968.289 -141.33 978.687 -160.82 999.995L-169.476 1009.46C-182.457 1023.65 -191.585 1040.93 -195.989 1059.65L-211.096 1123.89L-222.596 1176.17C-235.731 1235.88 -283.736 1281.68 -344 1292V1292" stroke="#001A3D" stroke-opacity="0.04" stroke-width="126"/>
<path d="M-17.5 660L145.5 490.5L278.865 343.491C319.669 298.513 370.853 264.196 427.956 243.53L461.55 231.372C579.756 188.593 768.115 209.369 734.5 330.5V330.5C730.509 344.88 727.605 360.512 725.582 376.807C709.258 508.252 666.709 642.293 559.957 720.704L492.931 769.936C466.598 789.278 448.439 817.759 442.015 849.794V849.794C426.936 924.991 479.363 997.01 555.556 1005.76L654.353 1017.12C724.842 1025.21 794.968 999.213 843.139 947.118L927.349 856.048C938.763 843.704 949.13 830.432 958.343 816.368L1049.27 677.575C1081.1 628.977 1071.76 564.275 1027.47 526.671L1014.34 515.521C962.085 471.15 967.37 388.953 1024.88 351.639V351.639C1083.19 313.803 1161.46 343.861 1179.45 411.005L1220.07 562.547C1230.39 601.056 1227.44 641.92 1211.69 678.548V678.548C1165.35 786.344 1234.54 908.629 1350.8 924.426L1411.57 932.681C1484.48 942.587 1557.61 916.06 1607.21 861.711L1629.25 837.557C1662.2 801.454 1685.36 757.518 1696.53 709.932L1735 546L1764.36 412.225C1797.7 260.34 1919.74 143.799 2073 117.5V117.5" stroke="#001A3D" stroke-opacity="0.04" stroke-width="126"/>
<path d="M2073.5 -204L1910.5 -34.5L1777.13 112.509C1736.33 157.487 1685.15 191.804 1628.04 212.47L1594.45 224.628C1476.24 267.407 1287.88 246.631 1321.5 125.5V125.5C1325.49 111.12 1328.39 95.4876 1330.42 79.1928C1346.74 -52.2517 1389.29 -186.293 1496.04 -264.704L1563.07 -313.936C1589.4 -333.278 1607.56 -361.759 1613.99 -393.794V-393.794C1629.06 -468.991 1576.64 -541.01 1500.44 -549.764L1401.65 -561.115C1331.16 -569.214 1261.03 -543.213 1212.86 -491.118L1128.65 -400.048C1117.24 -387.704 1106.87 -374.432 1097.66 -360.368L1006.73 -221.575C974.896 -172.977 984.241 -108.275 1028.53 -70.6712L1041.66 -59.5214C1093.92 -15.1499 1088.63 67.0474 1031.12 104.361V104.361C972.806 142.197 894.545 112.139 876.549 44.9949L835.934 -106.547C825.613 -145.056 828.563 -185.92 844.309 -222.548V-222.548C890.65 -330.344 821.463 -452.629 705.197 -468.426L644.43 -476.681C571.52 -486.587 498.393 -460.06 448.792 -405.711L426.748 -381.557C393.798 -345.454 370.637 -301.518 359.47 -253.932L321 -90L291.639 43.7748C258.303 195.66 136.26 312.201 -17 338.5V338.5" stroke="#001A3D" stroke-opacity="0.04" stroke-width="126"/>
</g>
<defs>
<clipPath id="clip0_323_141">
<rect width="1920" height="1080" fill="white"/>
</clipPath>
</defs>
</svg>
