<svg width="298" height="353" viewBox="0 0 298 353" fill="none" xmlns="http://www.w3.org/2000/svg">
<path d="M111.753 31.7328L31.832 89.3891C13.0988 102.904 2 124.596 2 147.695V260.021C2 293.665 25.3324 322.811 58.1612 330.173L139.276 348.366C150.104 350.795 161.348 350.684 172.126 348.042L241.625 331.005C273.787 323.122 296.404 294.291 296.404 261.177V145.778C296.404 123.76 286.314 102.955 269.023 89.3217L198.33 33.5823C173.121 13.7051 137.788 12.9503 111.753 31.7328Z" stroke="url(#paint0_linear_418_196)" stroke-width="3"/>
<path d="M147.232 306.611C148.209 307.588 149.791 307.588 150.768 306.611L166.678 290.701C167.654 289.725 167.654 288.142 166.678 287.166C165.701 286.19 164.118 286.19 163.142 287.166L149 301.308L134.858 287.166C133.882 286.19 132.299 286.19 131.322 287.166C130.346 288.142 130.346 289.725 131.322 290.701L147.232 306.611ZM146.5 52.3467L146.5 54.3193L151.5 54.3193L151.5 52.3467L146.5 52.3467ZM146.5 58.2646L146.5 62.2098L151.5 62.2098L151.5 58.2646L146.5 58.2646ZM146.5 66.1551L146.5 70.1004L151.5 70.1004L151.5 66.1551L146.5 66.1551ZM146.5 74.0456L146.5 77.9909L151.5 77.9909L151.5 74.0456L146.5 74.0456ZM146.5 81.9362L146.5 85.8814L151.5 85.8814L151.5 81.9362L146.5 81.9362ZM146.5 89.8267L146.5 93.7719L151.5 93.7719L151.5 89.8267L146.5 89.8267ZM146.5 97.7172L146.5 101.662L151.5 101.662L151.5 97.7172L146.5 97.7172ZM146.5 105.608L146.5 109.553L151.5 109.553L151.5 105.608L146.5 105.608ZM146.5 113.498L146.5 117.444L151.5 117.444L151.5 113.498L146.5 113.498ZM146.5 121.389L146.5 125.334L151.5 125.334L151.5 121.389L146.5 121.389ZM146.5 129.279L146.5 133.225L151.5 133.225L151.5 129.279L146.5 129.279ZM146.5 137.17L146.5 141.115L151.5 141.115L151.5 137.17L146.5 137.17ZM146.5 145.06L146.5 149.006L151.5 149.006L151.5 145.06L146.5 145.06ZM146.5 152.951L146.5 156.896L151.5 156.896L151.5 152.951L146.5 152.951ZM146.5 160.841L146.5 164.787L151.5 164.787L151.5 160.841L146.5 160.841ZM146.5 168.732L146.5 172.677L151.5 172.677L151.5 168.732L146.5 168.732ZM146.5 176.623L146.5 180.568L151.5 180.568L151.5 176.623L146.5 176.623ZM146.5 184.513L146.5 188.458L151.5 188.458L151.5 184.513L146.5 184.513ZM146.5 192.404L146.5 196.349L151.5 196.349L151.5 192.404L146.5 192.404ZM146.5 200.294L146.5 204.239L151.5 204.239L151.5 200.294L146.5 200.294ZM146.5 208.185L146.5 212.13L151.5 212.13L151.5 208.185L146.5 208.185ZM146.5 216.075L146.5 220.02L151.5 220.02L151.5 216.075L146.5 216.075ZM146.5 223.966L146.5 227.911L151.5 227.911L151.5 223.966L146.5 223.966ZM146.5 231.856L146.5 235.802L151.5 235.802L151.5 231.856L146.5 231.856ZM146.5 239.747L146.5 243.692L151.5 243.692L151.5 239.747L146.5 239.747ZM146.5 247.637L146.5 251.583L151.5 251.583L151.5 247.637L146.5 247.637ZM146.5 255.528L146.5 259.473L151.5 259.473L151.5 255.528L146.5 255.528ZM146.5 263.418L146.5 267.364L151.5 267.364L151.5 263.418L146.5 263.418ZM146.5 271.309L146.5 275.254L151.5 275.254L151.5 271.309L146.5 271.309ZM146.5 279.199L146.5 283.145L151.5 283.145L151.5 279.199L146.5 279.199ZM146.5 287.09L146.5 291.035L151.5 291.035L151.5 287.09L146.5 287.09ZM146.5 294.981L146.5 298.926L151.5 298.926L151.5 294.981L146.5 294.981ZM146.5 302.871L146.5 304.844L151.5 304.844L151.5 302.871L146.5 302.871ZM145.464 308.379C147.417 310.332 150.583 310.332 152.536 308.379L184.355 276.559C186.308 274.607 186.308 271.441 184.355 269.488C182.403 267.536 179.237 267.536 177.284 269.488L149 297.772L120.716 269.488C118.763 267.536 115.597 267.536 113.645 269.488C111.692 271.441 111.692 274.607 113.645 276.559L145.464 308.379ZM144 52.3467L144 54.3193L154 54.3193L154 52.3467L144 52.3467ZM144 58.2646L144 62.2098L154 62.2098L154 58.2646L144 58.2646ZM144 66.1551L144 70.1004L154 70.1004L154 66.1551L144 66.1551ZM144 74.0456L144 77.9909L154 77.9909L154 74.0456L144 74.0456ZM144 81.9362L144 85.8814L154 85.8814L154 81.9362L144 81.9362ZM144 89.8267L144 93.7719L154 93.7719L154 89.8267L144 89.8267ZM144 97.7172L144 101.662L154 101.662L154 97.7172L144 97.7172ZM144 105.608L144 109.553L154 109.553L154 105.608L144 105.608ZM144 113.498L144 117.444L154 117.444L154 113.498L144 113.498ZM144 121.389L144 125.334L154 125.334L154 121.389L144 121.389ZM144 129.279L144 133.225L154 133.225L154 129.279L144 129.279ZM144 137.17L144 141.115L154 141.115L154 137.17L144 137.17ZM144 145.06L144 149.006L154 149.006L154 145.06L144 145.06ZM144 152.951L144 156.896L154 156.896L154 152.951L144 152.951ZM144 160.841L144 164.787L154 164.787L154 160.841L144 160.841ZM144 168.732L144 172.677L154 172.677L154 168.732L144 168.732ZM144 176.623L144 180.568L154 180.568L154 176.623L144 176.623ZM144 184.513L144 188.458L154 188.458L154 184.513L144 184.513ZM144 192.404L144 196.349L154 196.349L154 192.404L144 192.404ZM144 200.294L144 204.239L154 204.239L154 200.294L144 200.294ZM144 208.185L144 212.13L154 212.13L154 208.185L144 208.185ZM144 216.075L144 220.02L154 220.02L154 216.075L144 216.075ZM144 223.966L144 227.911L154 227.911L154 223.966L144 223.966ZM144 231.856L144 235.802L154 235.802L154 231.856L144 231.856ZM144 239.747L144 243.692L154 243.692L154 239.747L144 239.747ZM144 247.637L144 251.583L154 251.583L154 247.637L144 247.637ZM144 255.528L144 259.473L154 259.473L154 255.528L144 255.528ZM144 263.418L144 267.364L154 267.364L154 263.418L144 263.418ZM144 271.309L144 275.254L154 275.254L154 271.309L144 271.309ZM144 279.199L144 283.145L154 283.145L154 279.199L144 279.199ZM144 287.09L144 291.035L154 291.035L154 287.09L144 287.09ZM144 294.981L144 298.926L154 298.926L154 294.981L144 294.981ZM144 302.871L144 304.844L154 304.844L154 302.871L144 302.871Z" fill="url(#paint1_linear_418_196)"/>
<defs>
<linearGradient id="paint0_linear_418_196" x1="149.202" y1="0" x2="149.202" y2="352.059" gradientUnits="userSpaceOnUse">
<stop offset="0.0122045" stop-color="white" stop-opacity="0"/>
<stop offset="1" stop-color="white"/>
</linearGradient>
<linearGradient id="paint1_linear_418_196" x1="149" y1="63.4211" x2="149" y2="333.083" gradientUnits="userSpaceOnUse">
<stop stop-color="white" stop-opacity="0.1"/>
<stop offset="1" stop-color="white"/>
</linearGradient>
</defs>
</svg>
