<svg width="300" height="353" viewBox="0 0 300 353" fill="none" xmlns="http://www.w3.org/2000/svg">
<path d="M112.753 31.7328L32.832 89.3891C14.0988 102.904 3 124.596 3 147.695V260.021C3 293.665 26.3324 322.811 59.1612 330.173L140.276 348.366C151.104 350.795 162.348 350.684 173.126 348.042L242.625 331.005C274.787 323.122 297.404 294.291 297.404 261.177V145.778C297.404 123.76 287.314 102.955 270.023 89.3217L199.33 33.5823C174.121 13.7051 138.788 12.9503 112.753 31.7328Z" stroke="url(#paint0_linear_428_155)" stroke-width="5"/>
<path d="M148.232 306.611C149.209 307.588 150.791 307.588 151.768 306.611L167.678 290.701C168.654 289.725 168.654 288.142 167.678 287.166C166.701 286.19 165.118 286.19 164.142 287.166L150 301.308L135.858 287.166C134.882 286.19 133.299 286.19 132.322 287.166C131.346 288.142 131.346 289.725 132.322 290.701L148.232 306.611ZM147.5 52.3467L147.5 54.3193L152.5 54.3193L152.5 52.3467L147.5 52.3467ZM147.5 58.2646L147.5 62.2098L152.5 62.2098L152.5 58.2646L147.5 58.2646ZM147.5 66.1551L147.5 70.1004L152.5 70.1004L152.5 66.1551L147.5 66.1551ZM147.5 74.0456L147.5 77.9909L152.5 77.9909L152.5 74.0456L147.5 74.0456ZM147.5 81.9362L147.5 85.8814L152.5 85.8814L152.5 81.9362L147.5 81.9362ZM147.5 89.8267L147.5 93.7719L152.5 93.7719L152.5 89.8267L147.5 89.8267ZM147.5 97.7172L147.5 101.662L152.5 101.662L152.5 97.7172L147.5 97.7172ZM147.5 105.608L147.5 109.553L152.5 109.553L152.5 105.608L147.5 105.608ZM147.5 113.498L147.5 117.444L152.5 117.444L152.5 113.498L147.5 113.498ZM147.5 121.389L147.5 125.334L152.5 125.334L152.5 121.389L147.5 121.389ZM147.5 129.279L147.5 133.225L152.5 133.225L152.5 129.279L147.5 129.279ZM147.5 137.17L147.5 141.115L152.5 141.115L152.5 137.17L147.5 137.17ZM147.5 145.06L147.5 149.006L152.5 149.006L152.5 145.06L147.5 145.06ZM147.5 152.951L147.5 156.896L152.5 156.896L152.5 152.951L147.5 152.951ZM147.5 160.841L147.5 164.787L152.5 164.787L152.5 160.841L147.5 160.841ZM147.5 168.732L147.5 172.677L152.5 172.677L152.5 168.732L147.5 168.732ZM147.5 176.623L147.5 180.568L152.5 180.568L152.5 176.623L147.5 176.623ZM147.5 184.513L147.5 188.458L152.5 188.458L152.5 184.513L147.5 184.513ZM147.5 192.404L147.5 196.349L152.5 196.349L152.5 192.404L147.5 192.404ZM147.5 200.294L147.5 204.239L152.5 204.239L152.5 200.294L147.5 200.294ZM147.5 208.185L147.5 212.13L152.5 212.13L152.5 208.185L147.5 208.185ZM147.5 216.075L147.5 220.02L152.5 220.02L152.5 216.075L147.5 216.075ZM147.5 223.966L147.5 227.911L152.5 227.911L152.5 223.966L147.5 223.966ZM147.5 231.856L147.5 235.802L152.5 235.802L152.5 231.856L147.5 231.856ZM147.5 239.747L147.5 243.692L152.5 243.692L152.5 239.747L147.5 239.747ZM147.5 247.637L147.5 251.583L152.5 251.583L152.5 247.637L147.5 247.637ZM147.5 255.528L147.5 259.473L152.5 259.473L152.5 255.528L147.5 255.528ZM147.5 263.418L147.5 267.364L152.5 267.364L152.5 263.418L147.5 263.418ZM147.5 271.309L147.5 275.254L152.5 275.254L152.5 271.309L147.5 271.309ZM147.5 279.199L147.5 283.145L152.5 283.145L152.5 279.199L147.5 279.199ZM147.5 287.09L147.5 291.035L152.5 291.035L152.5 287.09L147.5 287.09ZM147.5 294.981L147.5 298.926L152.5 298.926L152.5 294.981L147.5 294.981ZM147.5 302.871L147.5 304.844L152.5 304.844L152.5 302.871L147.5 302.871ZM146.464 308.379C148.417 310.332 151.583 310.332 153.536 308.379L185.355 276.559C187.308 274.607 187.308 271.441 185.355 269.488C183.403 267.536 180.237 267.536 178.284 269.488L150 297.772L121.716 269.488C119.763 267.536 116.597 267.536 114.645 269.488C112.692 271.441 112.692 274.607 114.645 276.559L146.464 308.379ZM145 52.3467L145 54.3193L155 54.3193L155 52.3467L145 52.3467ZM145 58.2646L145 62.2098L155 62.2098L155 58.2646L145 58.2646ZM145 66.1551L145 70.1004L155 70.1004L155 66.1551L145 66.1551ZM145 74.0456L145 77.9909L155 77.9909L155 74.0456L145 74.0456ZM145 81.9362L145 85.8814L155 85.8814L155 81.9362L145 81.9362ZM145 89.8267L145 93.7719L155 93.7719L155 89.8267L145 89.8267ZM145 97.7172L145 101.662L155 101.662L155 97.7172L145 97.7172ZM145 105.608L145 109.553L155 109.553L155 105.608L145 105.608ZM145 113.498L145 117.444L155 117.444L155 113.498L145 113.498ZM145 121.389L145 125.334L155 125.334L155 121.389L145 121.389ZM145 129.279L145 133.225L155 133.225L155 129.279L145 129.279ZM145 137.17L145 141.115L155 141.115L155 137.17L145 137.17ZM145 145.06L145 149.006L155 149.006L155 145.06L145 145.06ZM145 152.951L145 156.896L155 156.896L155 152.951L145 152.951ZM145 160.841L145 164.787L155 164.787L155 160.841L145 160.841ZM145 168.732L145 172.677L155 172.677L155 168.732L145 168.732ZM145 176.623L145 180.568L155 180.568L155 176.623L145 176.623ZM145 184.513L145 188.458L155 188.458L155 184.513L145 184.513ZM145 192.404L145 196.349L155 196.349L155 192.404L145 192.404ZM145 200.294L145 204.239L155 204.239L155 200.294L145 200.294ZM145 208.185L145 212.13L155 212.13L155 208.185L145 208.185ZM145 216.075L145 220.02L155 220.02L155 216.075L145 216.075ZM145 223.966L145 227.911L155 227.911L155 223.966L145 223.966ZM145 231.856L145 235.802L155 235.802L155 231.856L145 231.856ZM145 239.747L145 243.692L155 243.692L155 239.747L145 239.747ZM145 247.637L145 251.583L155 251.583L155 247.637L145 247.637ZM145 255.528L145 259.473L155 259.473L155 255.528L145 255.528ZM145 263.418L145 267.364L155 267.364L155 263.418L145 263.418ZM145 271.309L145 275.254L155 275.254L155 271.309L145 271.309ZM145 279.199L145 283.145L155 283.145L155 279.199L145 279.199ZM145 287.09L145 291.035L155 291.035L155 287.09L145 287.09ZM145 294.981L145 298.926L155 298.926L155 294.981L145 294.981ZM145 302.871L145 304.844L155 304.844L155 302.871L145 302.871Z" fill="url(#paint1_linear_428_155)"/>
<defs>
<linearGradient id="paint0_linear_428_155" x1="150.202" y1="0" x2="150.202" y2="352.059" gradientUnits="userSpaceOnUse">
<stop offset="0.0122045" stop-color="#1877F2"/>
<stop offset="1" stop-color="white"/>
</linearGradient>
<linearGradient id="paint1_linear_428_155" x1="150" y1="63.4211" x2="150" y2="333.083" gradientUnits="userSpaceOnUse">
<stop stop-color="white" stop-opacity="0.1"/>
<stop offset="1" stop-color="#1877F2"/>
</linearGradient>
</defs>
</svg>
